Coordinates
version=1
nRows=8
nColumns=42
inDegrees=yes

Units are S.I. units (second, meters, Newtons, ...)
If the header above contains a line with 'inDegrees', this indicates whether rotational values are in degrees (yes) or radians (no).

endheader
time	pelvis_tilt	pelvis_list	pelvis_rotation	pelvis_tx	pelvis_ty	pelvis_tz	hip_flexion_r	hip_adduction_r	hip_rotation_r	knee_angle_r	knee_adduction_r	knee_angle_r_beta	ankle_angle_r	subtalar_angle_r	mtp_angle_r	hip_flexion_l	hip_adduction_l	hip_rotation_l	knee_angle_l	knee_adduction_l	knee_angle_l_beta	ankle_angle_l	subtalar_angle_l	mtp_angle_l	lumbar_extension	lumbar_bending	lumbar_rotation	arm_flex_r	arm_add_r	arm_rot_r	elbow_flex_r	pro_sup_r	wrist_flex_r	wrist_dev_r	arm_flex_l	arm_add_l	arm_rot_l	elbow_flex_l	pro_sup_l	wrist_flex_l	wrist_dev_l
      0.15000000	     14.21836580	     -0.69795451	      5.99460058	     -0.96086083	      0.84107302	     -0.25541000	     12.51965465	      0.60547703	    -26.40125786	     20.11106112	     -3.23590619	      0.35100423	      9.64305284	     -9.53357333	     -8.87152146	    -28.87249846	     -4.70837995	    -16.61459868	     20.81227922	     -0.09378918	      0.36324280	     18.73535133	      2.06094581	     -8.87152146	    -27.76409996	      2.97259659	      0.05414705	    -13.24342425	     -3.89310078	    -12.51435999	     26.27017952	     90.00000001	      0.00000000	      0.00000000	     25.79394275	    -10.79759178	      4.60789462	     52.75329909	     90.00000001	      0.00000000	      0.00000000
      0.16000000	     14.33021934	     -1.06903861	      5.71784213	     -0.94880667	      0.84286960	     -0.25320769	     11.84030973	      1.19268746	    -25.96826986	     20.71464224	     -3.15756224	      0.36153871	      9.22500878	    -10.64896807	     -8.78757313	    -28.76693904	     -5.08364163	    -15.13574744	     22.83155573	     -0.10962042	      0.39848582	     16.07602207	     -1.41249458	     -8.78757313	    -27.81042229	      3.30010957	      0.44611330	    -12.48370108	     -3.94765591	    -13.36359484	     26.05169754	     90.00000001	      0.00000000	      0.00000000	     25.00832669	    -10.45526364	      3.63601640	     52.25473130	     90.00000001	      0.00000000	      0.00000000
      0.17000000	     14.63210612	     -1.35016598	      5.38815274	     -0.93662231	      0.84491612	     -0.25107835	     10.93478890	      1.69642590	    -25.65606850	     21.36477914	     -3.19344882	      0.37288574	      9.24397358	    -10.72752985	     -8.78091409	    -28.74357602	     -5.41430617	    -14.34208409	     25.02262029	     -0.17627267	      0.43672711	     14.91520487	     -1.96931140	     -8.78091409	    -28.02631280	      3.58296947	      0.90436118	    -11.91901879	     -4.18474487	    -13.39153628	     26.16655699	     90.00000001	      0.00000000	      0.00000000	     23.98646519	    -10.30819922	      3.64388303	     51.82976322	     90.00000001	      0.00000000	      0.00000000
      0.18000000	     14.69855726	     -1.68534476	      5.05628577	     -0.92470330	      0.84718987	     -0.24848879	     10.01993720	      2.39288770	    -24.77970315	     21.33614831	     -2.98443084	      0.37238604	      8.85454037	    -12.33915933	     -8.67228740	    -28.39709150	     -5.76406573	    -11.48292921	     27.40450340	      0.58265858	      0.47829881	      9.55347558	    -10.18387513	     -8.67228740	    -28.02057281	      3.79995243	      1.31317899	    -10.88138844	     -4.21335219	    -13.69815528	     25.61200376	     90.00000001	      0.00000000	      0.00000000	     23.29949897	    -10.08930464	      2.81922234	     50.69600884	     90.00000001	      0.00000000	      0.00000000
      0.19000000	     14.91144477	     -1.96319971	      4.66990121	     -0.91291211	      0.84944652	     -0.24596078	      8.98307449	      2.96942781	    -24.33254707	     21.42023505	     -2.85368338	      0.37385363	      8.96262482	    -12.42844954	     -8.58700794	    -27.93219574	     -6.13127140	    -10.11179664	     30.12280473	      0.97239568	      0.52574212	      6.12253045	    -13.76796418	     -8.58700794	    -28.20424810	      3.97258795	      1.77340938	    -10.01669800	     -4.36199119	    -13.70837083	     25.60719758	     90.00000001	      0.00000000	      0.00000000	     22.40087549	     -9.98207697	      2.51575204	     49.90405563	     90.00000001	      0.00000000	      0.00000000
      0.20000000	     15.07822832	     -2.21054935	      4.23775539	     -0.90133905	      0.85154241	     -0.24335028	      7.95616898	      3.55609532	    -24.01675860	     21.34239476	     -2.85162377	      0.37249506	      9.21686088	    -12.11171643	     -8.55324143	    -27.13310242	     -6.53612403	     -9.58901266	     33.22072414	      1.09844272	      0.57981102	      3.13070815	    -15.83266162	     -8.55324143	    -28.36549393	      4.07985528	      2.27453627	     -9.12917614	     -4.60554006	    -13.59162626	     25.72422552	     90.00000001	      0.00000000	      0.00000000	     21.49883168	     -9.91903773	      2.38461209	     49.16898965	     90.00000001	      0.00000000	      0.00000000
      0.21000000	     15.19104930	     -2.41239053	      3.82525053	     -0.89000960	      0.85351470	     -0.24073784	      6.95421563	      4.06201309	    -23.92860441	     21.17507966	     -2.85181281	      0.36957486	      9.61612777	    -11.49944102	     -8.51611015	    -26.13510481	     -6.88865902	     -8.86404821	     36.37317439	      1.28325842	      0.63483165	      0.54874147	    -17.44925822	     -8.51611015	    -28.49847786	      4.13138038	      2.73663990	     -8.17482417	     -4.80409380	    -13.36222368	     25.87416271	     90.00000001	      0.00000000	      0.00000000	     20.61214937	     -9.84640527	      2.20067590	     48.26962426	     90.00000001	      0.00000000	      0.00000000
      0.22000000	     15.25249621	     -2.57804233	      3.42101522	     -0.87899136	      0.85527458	     -0.23811932	      6.01159842	      4.51458667	    -23.98888465	     20.96959155	     -2.89998700	      0.36598842	     10.11472990	    -10.63397822	     -8.48098017	    -24.89919928	     -7.21519524	     -8.34405026	     39.61494177	      1.31539756	      0.69141117	     -1.31064384	    -18.21753582	     -8.48098017	    -28.60828902	      4.13137452	      3.18462202	     -7.14963305	     -5.03406308	    -13.07770115	     26.10306893	     90.00000001	      0.00000000	      0.00000000	     19.75919243	     -9.76148386	      1.99361310	     47.30958065	     90.00000001	      0.00000000	      0.00000000
